<?xml version="1.0" encoding="UTF-8"?>
<svg xmlns="http://www.w3.org/2000/svg" style="display:none;">
  <symbol id="icon-home" viewBox="0 0 32 32" fill="none" stroke="currentColor" stroke-width="2">
    <path d="M4 16 L16 6 L28 16 V28 H20 V20 H12 V28 H4 Z"/>
  </symbol>

  <symbol id="icon-hamburguesa" viewBox="0 0 32 32" fill="currentColor">
    <!-- user provided hamburger path, styled with currentColor -->
    <path d="M0 18.74v-1.47c0-1.39 1.4-2.49 3.12-2.49 0 0 .18 0 .36.01.14.01.3.02.46.02.43 0 .91-.08 1.41-.29.39-.16 1.08-.38 1.97-.38 1.69 0 3.28.59 4.47 1.28 1.13.66 2.56 1.47 4.41 1.47 1.01 0 1.78-.2 2.33-.4.45-.17 1-.28 1.64-.28 1.14 0 2.47.29 3.6.95 1.53.89 3.12 1.62 4.76 1.62 1.64 0 3.23-.73 4.76-1.62 1.13-.66 2.46-.95 3.6-.95.64 0 1.19.11 1.64.28.54.2 1.32.4 2.33.4 1.85 0 3.28-.81 4.41-1.47 1.19-.69 2.78-1.28 4.47-1.28.89 0 1.58.22 1.97.38.5.21.98.29 1.41.29.16 0 .32-.01.46-.02.18-.01.36-.01.36-.01 1.72 0 3.12 1.1 3.12 2.49v1.47H0z"/>
  </symbol>

  <symbol id="icon-chuletas" viewBox="0 0 32 32" fill="none" stroke="currentColor" stroke-width="2">
    <path d="M8 20 C10 14, 18 14, 20 20" stroke-linecap="round" stroke-linejoin="round"/>
    <circle cx="22" cy="10" r="4"/>
  </symbol>

  <symbol id="icon-raciones" viewBox="0 0 32 32" fill="none" stroke="currentColor" stroke-width="2">
    <rect x="6" y="10" width="20" height="10" rx="3"/>
    <circle cx="12" cy="20" r="1.8" fill="currentColor"/>
    <circle cx="20" cy="20" r="1.8" fill="currentColor"/>
  </symbol>

  <symbol id="icon-bocadillos" viewBox="0 0 32 32" fill="none" stroke="currentColor" stroke-width="2">
    <rect x="6" y="12" width="20" height="8" rx="3"/>
    <path d="M6 12 C10 8, 22 8, 26 12"/>
  </symbol>

  <symbol id="icon-contacto" viewBox="0 0 32 32" fill="none" stroke="currentColor" stroke-width="2">
    <circle cx="16" cy="11" r="5"/>
    <rect x="8" y="18" width="16" height="8" rx="3"/>
  </symbol>
</svg>
