<?xml version="1.0" encoding="UTF-8"?>
<svg width="128" height="128" viewBox="0 0 128 128" fill="none" xmlns="http://www.w3.org/2000/svg" role="img" aria-label="Jamon entero">
  <defs>
    <linearGradient id="jamonBody" x1="20" y1="40" x2="100" y2="92" gradientUnits="userSpaceOnUse">
      <stop offset="0%" stop-color="#A5362A"/>
      <stop offset="50%" stop-color="#C04532"/>
      <stop offset="100%" stop-color="#E05B3D"/>
    </linearGradient>
    <linearGradient id="jamonFat" x1="78" y1="54" x2="118" y2="86" gradientUnits="userSpaceOnUse">
      <stop offset="0%" stop-color="#FDE6C8"/>
      <stop offset="100%" stop-color="#F5CFA0"/>
    </linearGradient>
    <linearGradient id="bone" x1="104" y1="30" x2="124" y2="54" gradientUnits="userSpaceOnUse">
      <stop offset="0%" stop-color="#F7F2EC"/>
      <stop offset="100%" stop-color="#DCD2C8"/>
    </linearGradient>
  </defs>
  <!-- Hueso -->
  <g stroke="#967D6A" stroke-width="2" stroke-linejoin="round">
    <path fill="url(#bone)" d="M110 30c4.5-2.8 9.5 1.9 7.7 6.7 5.2 1.6 6 9-1 11.4-1.7 6.3-9.5 5.6-11.2-.2-5.4-1.3-6.8-9.8-.9-12.3 0 0 1.3-4 5.4-5.6Z"/>
    <rect x="92" y="46" width="10" height="12" rx="4" fill="#E6DDD4"/>
  </g>
  <!-- Cuerpo jamón -->
  <path d="M18 58c0-18 16-34 42-34 12.5 0 23.5 3.4 29 8l13 14c6 6.5 4 20-4.5 29.5C85 89 74 95 60 98c-9 2-23 .5-31-5C20 85 18 74 18 58Z" fill="url(#jamonBody)" stroke="#812819" stroke-width="3"/>
  <!-- Grasa / corte -->
  <path d="M74 50c12 5 22 16 18 26-3 8-14 14-26 16" stroke="#FCE0BF" stroke-width="5" stroke-linecap="round" stroke-linejoin="round"/>
  <!-- Brillos -->
  <circle cx="44" cy="48" r="6" fill="#F37A55" opacity=".55"/>
  <circle cx="56" cy="42" r="4" fill="#F37A55" opacity=".45"/>
  <!-- Corte extremo -->
  <path d="M92 46c9 3 20 26-2 40 10-12-1-32-8-36l10-4Z" fill="url(#jamonFat)" stroke="#C04832" stroke-width="2"/>
</svg>
